<svg width="26" height="27" viewBox="0 0 26 27" fill="none" xmlns="http://www.w3.org/2000/svg">
<path fill-rule="evenodd" clip-rule="evenodd" d="M7.58333 0.743652H18.4167C22.5875 0.743652 26 4.15615 26 8.32699V19.1603C26 23.3312 22.5875 26.7437 18.4167 26.7437H7.58333C3.4125 26.7437 0 23.3312 0 19.1603V8.32699C0 4.15615 3.4125 0.743652 7.58333 0.743652ZM22.2396 4.50417C21.2104 3.48178 19.8495 2.91303 18.4141 2.91303H7.58073C6.14531 2.91303 4.7776 3.47501 3.7552 4.50417C2.73281 5.53334 2.16406 6.89428 2.16406 8.3297V19.163C2.16406 20.5985 2.72604 21.9662 3.7552 22.9886C4.78437 24.011 6.14531 24.5797 7.58073 24.5797H18.4141C19.8495 24.5797 21.2172 24.0177 22.2396 22.9886C23.262 21.9594 23.8307 20.5985 23.8307 19.163V8.3297C23.8307 6.89428 23.2688 5.52657 22.2396 4.50417Z" fill="#757575"/>
<path fill-rule="evenodd" clip-rule="evenodd" d="M20.0391 8.3277C19.1385 8.3277 18.4141 7.60332 18.4141 6.70291C18.4141 5.80251 19.1385 5.07812 20.0391 5.07812C20.9328 5.07812 21.6641 5.80251 21.6641 6.70291C21.6641 7.60332 20.9328 8.3277 20.0391 8.3277ZM13.0013 9.40875C15.3914 9.40875 17.3346 11.352 17.3346 13.7422C17.3346 16.1324 15.3914 18.0757 13.0013 18.0757C10.6112 18.0757 8.66795 16.1324 8.66795 13.7422C8.66795 11.352 10.6112 9.40875 13.0013 9.40875ZM6.5 13.7475C6.5 10.159 9.41146 7.2475 13 7.2475C16.5886 7.2475 19.5 10.159 19.5 13.7475C19.5 17.336 16.5886 20.2475 13 20.2475C9.41146 20.2475 6.5 17.336 6.5 13.7475Z" fill="#757575"/>
</svg>
