<svg width="25" height="22" viewBox="0 0 25 22" fill="none" xmlns="http://www.w3.org/2000/svg">
<path d="M8.44922 1.80001L8.44922 20.2" stroke="black" stroke-width="2" stroke-linecap="square" stroke-linejoin="round"/>
<path d="M19.8008 1.80001L19.8008 20.2" stroke="black" stroke-width="2" stroke-linecap="square" stroke-linejoin="round"/>
<path d="M10.67 15.485C10.67 16.7746 9.62459 17.82 8.335 17.82C7.04542 17.82 6 16.7746 6 15.485C6 14.1954 7.04542 13.15 8.335 13.15C9.62459 13.15 10.67 14.1954 10.67 15.485Z" fill="white" stroke="black" stroke-width="2"/>
<path d="M22.0196 7.435C22.0196 8.72458 20.9742 9.77 19.6846 9.77C18.395 9.77 17.3496 8.72458 17.3496 7.435C17.3496 6.14541 18.395 5.1 19.6846 5.1C20.9742 5.1 22.0196 6.14541 22.0196 7.435Z" fill="white" stroke="black" stroke-width="2"/>
</svg>
