<svg width="40" height="63" viewBox="0 0 40 63" fill="none" xmlns="http://www.w3.org/2000/svg">
<path d="M2 31.8103L37 31.8103" stroke="black" stroke-width="2"/>
<path d="M5.20273 23.8103V2.8103H13.2427C14.5027 2.8103 15.6227 3.0603 16.6027 3.5603C17.6027 4.0403 18.3927 4.7303 18.9727 5.6303C19.5527 6.5303 19.8427 7.6203 19.8427 8.9003V9.2903C19.8427 10.5503 19.5427 11.6403 18.9427 12.5603C18.3627 13.4603 17.5727 14.1503 16.5727 14.6303C15.5727 15.1103 14.4627 15.3503 13.2427 15.3503H7.72273V23.8103H5.20273ZM7.72273 13.0703H12.9727C14.3127 13.0703 15.3727 12.7403 16.1527 12.0803C16.9327 11.4003 17.3227 10.4503 17.3227 9.2303V8.9303C17.3227 7.7103 16.9327 6.7703 16.1527 6.1103C15.3927 5.4303 14.3327 5.0903 12.9727 5.0903H7.72273V13.0703ZM23.2203 23.8103V2.8103H25.7403V21.5303H36.3603V23.8103H23.2203Z" fill="black" class="pl-language"/>
<path d="M3.98691 59.8103V38.8103H16.9169V41.0903H6.50691V48.1103H16.0769V50.3903H6.50691V57.5303H17.0669V59.8103H3.98691ZM20.8912 59.8103V38.8103H25.7812L33.1012 58.2203H33.4912V38.8103H35.9812V59.8103H31.0912L23.8012 40.3703H23.3812V59.8103H20.8912Z" fill="black" class="en-language"/>
</svg>
