<svg width="30" height="28" viewBox="0 0 30 28" fill="none" xmlns="http://www.w3.org/2000/svg">
<path d="M15.9 0.360107C15.5685 0.360107 15.1154 0.48305 14.8944 0.706582L6.96049 7.83726C6.73949 8.06079 6.28644 8.18373 5.95494 8.18373H1.53492C1.20342 8.18373 0.982422 8.40727 0.982422 8.74257V18.8015C0.982422 19.1368 1.20342 19.3603 1.53492 19.3603H5.95494C6.28644 19.3603 6.73949 19.4833 6.96049 19.7068L14.9055 26.7257C15.1265 26.9493 15.5795 27.0722 15.911 27.0722C16.2425 27.0722 16.4635 26.8487 16.4635 26.5134V0.807172C16.4525 0.594816 16.2315 0.360107 15.9 0.360107ZM25.845 4.27192L24.287 5.84782C26.3091 7.88197 27.5025 10.5979 27.5025 13.772C27.5025 16.9462 26.3091 19.6621 24.287 21.6963L25.845 23.2722C28.2539 20.8357 29.7125 17.5274 29.7125 13.772C29.7125 10.0167 28.2539 6.70842 25.845 4.27192ZM21.1156 9.05551L19.5244 10.6649C20.3421 11.492 20.8725 12.5314 20.8725 13.772C20.8725 15.0126 20.3421 16.0521 19.5244 16.8791L21.1156 18.4886C22.2869 17.3038 23.0825 15.6609 23.0825 13.772C23.0825 11.8832 22.2869 10.2402 21.1156 9.05551Z" fill="black"/>
</svg>
