<svg width="23" height="22" viewBox="0 0 23 22" fill="none" xmlns="http://www.w3.org/2000/svg">
<path d="M11.7034 0.681641C11.4492 0.681641 11.1019 0.775897 10.9325 0.947271L4.84979 6.41412C4.68036 6.5855 4.33302 6.67975 4.07887 6.67975H0.690186C0.436035 6.67975 0.266602 6.85113 0.266602 7.10819V14.8201C0.266602 15.0771 0.436035 15.2485 0.690186 15.2485H4.07887C4.33302 15.2485 4.68036 15.3427 4.84979 15.5141L10.9409 20.8953C11.1104 21.0667 11.4577 21.1609 11.7119 21.1609C11.966 21.1609 12.1355 20.9895 12.1355 20.7325V1.02439C12.127 0.861584 11.9575 0.681641 11.7034 0.681641ZM19.3279 3.6807L18.1334 4.88889C19.6837 6.4484 20.5987 8.5306 20.5987 10.9641C20.5987 13.3976 19.6837 15.4798 18.1334 17.0394L19.3279 18.2475C21.1748 16.3796 22.293 13.8432 22.293 10.9641C22.293 8.08503 21.1748 5.54868 19.3279 3.6807ZM15.702 7.34812L14.4821 8.58201C15.109 9.2161 15.5157 10.013 15.5157 10.9641C15.5157 11.9153 15.109 12.7121 14.4821 13.3462L15.702 14.5801C16.6 13.6718 17.21 12.4122 17.21 10.9641C17.21 9.51601 16.6 8.2564 15.702 7.34812Z" fill="black"/>
</svg>
