<svg width="351" height="350" viewBox="0 0 351 350" fill="none" xmlns="http://www.w3.org/2000/svg">
<path d="M182.467 294.986V55.1287" stroke="white" stroke-width="3" stroke-miterlimit="10"/>
<path d="M326.976 271.777C327.319 268.576 327.548 265.261 327.548 261.945L327.319 182.603C327.319 162.596 317.372 134.814 276.444 119.494C255.979 111.949 236.544 105.089 226.94 85.4252C224.654 80.9664 222.367 64.5034 220.881 58.9014L220.081 56.8435H182.353L181.781 15L135.25 15.5716C135.25 15.5716 138.566 63.9318 124.618 87.5974C113.185 107.033 93.1781 115.264 75.0002 121.667C37.2724 135.043 23.5532 155.05 24.0105 188.205C24.5822 233.364 68.5979 239.423 93.7497 260.688C110.327 274.636 117.758 295.1 117.758 295.1H182.467L183.039 335H242.603C246.033 335 249.348 334.886 252.664 334.543V271.549H326.976V271.777Z" stroke="white" stroke-width="3" stroke-miterlimit="10"/>
</svg>
