<svg width="351" height="350" viewBox="0 0 351 350" fill="none" xmlns="http://www.w3.org/2000/svg">
<path d="M225.958 150.318C225.958 147.096 225.958 143.874 225.958 140.538C229.189 140.538 232.074 140.538 235.189 140.538C241.882 140.538 248.344 140.538 254.69 140.538C254.69 130.412 254.69 120.746 254.69 110.62C247.997 110.62 241.767 110.62 234.843 110.62C234.843 107.053 234.843 103.946 234.843 100.955C224.689 100.955 214.997 100.955 204.843 100.955C204.843 104.177 204.843 107.168 204.843 110.735C198.035 110.735 191.688 110.735 184.996 110.735C184.996 114.302 184.996 117.294 184.996 120.631C178.188 120.631 171.842 120.631 165.034 120.631C165.034 123.968 165.034 127.075 165.034 130.527C161.457 130.527 158.341 130.527 154.764 130.527C154.764 134.209 154.764 137.316 154.764 140.768C147.956 140.768 141.61 140.768 134.918 140.768C134.918 144.105 134.918 147.211 134.918 150.548C131.456 150.548 128.456 150.548 125.225 150.548C125.225 154.115 125.225 156.992 125.225 160.444C121.763 160.444 118.648 160.444 115.186 160.444C115.186 163.896 115.186 166.888 115.186 170.225C111.725 170.225 108.725 170.225 105.378 170.225C105.378 173.792 105.378 176.899 105.378 180.351C98.5705 180.351 92.2242 180.351 85.4163 180.351C85.4163 183.688 85.4163 186.679 85.4163 189.671C71.9159 189.671 58.8771 189.671 45.7229 189.671C45.7229 186.449 45.7229 183.572 45.7229 180.236C48.9538 180.236 52.1846 180.005 55.7617 180.005C55.7617 173.101 55.7617 166.888 55.7617 160.099C59.3387 160.099 62.3388 160.214 65.685 160.214C65.685 156.762 65.685 137.661 65.685 134.324C69.0312 134.324 72.1467 134.324 75.6083 134.324C75.6083 130.872 75.6083 127.765 75.6083 124.313C79.1854 124.313 82.1854 124.313 85.5317 124.313C85.5317 120.861 85.5317 117.869 85.5317 114.533C92.2242 114.533 98.5705 114.533 105.378 114.533C105.378 110.965 105.378 107.859 105.378 104.292C108.955 104.292 112.071 104.292 115.417 104.292C115.417 100.955 115.417 98.078 115.417 94.626C122.11 94.626 128.34 94.626 135.264 94.626C135.264 91.059 135.264 87.9522 135.264 84.3851C142.187 84.3851 148.418 84.3851 155.226 84.3851C155.226 80.9331 155.226 77.9414 155.226 74.3743C165.495 74.3743 175.188 74.3743 185.457 74.3743C185.457 70.8073 185.457 67.8155 185.457 64.3635C195.496 64.3635 205.189 64.3635 215.227 64.3635C215.227 60.7965 215.227 57.8047 215.227 54.5829C228.728 54.5829 241.651 54.5829 254.69 54.5829C254.69 44.457 254.69 34.6764 254.69 24.5505C251.459 24.5505 248.344 24.5505 244.882 24.5505C244.882 21.2136 244.882 18.1068 244.882 15C231.382 15 218.343 15 204.843 15C204.843 18.2219 204.843 21.0985 204.843 24.5505C194.688 24.5505 184.996 24.5505 174.842 24.5505C174.842 28.1176 174.842 31.2244 174.842 34.7914C164.688 34.7914 154.995 34.7914 145.072 34.7914C145.072 38.1284 145.072 41.005 145.072 44.342C138.379 44.342 132.148 44.342 125.225 44.342C125.225 48.0241 125.225 51.246 125.225 54.6979C121.648 54.6979 118.533 54.6979 115.186 54.6979C115.186 57.9198 115.186 60.9115 115.186 64.3635C108.378 64.3635 102.032 64.3635 95.2242 64.3635C95.2242 67.9306 95.2242 71.0374 95.2242 74.4894C91.6472 74.4894 88.6471 74.4894 85.4163 74.4894C85.4163 78.0565 85.4163 85.4207 85.4163 88.7576C78.7238 88.7576 72.3775 88.7576 65.4542 88.7576C65.4542 95.5466 65.4542 97.5027 65.4542 104.292C61.8772 104.292 58.8771 104.292 55.4155 104.292C55.4155 107.513 55.4155 110.62 55.4155 114.072C51.9539 114.072 48.9538 114.072 45.4922 114.072C45.4922 117.639 45.4922 136.74 45.4922 140.307C41.9151 140.307 38.7997 140.307 35.5688 140.307C35.4534 143.759 35.2227 146.751 35.1073 150.088C31.761 150.088 28.6456 150.088 25.2993 150.088C25.2993 153.655 25.2993 156.762 25.2993 160.214C21.8377 160.214 18.8376 160.214 15.8375 160.214C15.8375 173.562 15.8375 186.564 15.8375 200.027C19.0684 200.027 22.0685 200.027 25.4147 200.027C25.4147 203.479 25.4147 206.471 25.4147 209.693C28.8763 209.808 31.9918 210.038 35.4534 210.268C35.4534 213.72 35.4534 216.712 35.4534 220.049C52.3 220.049 68.6851 220.049 85.4163 220.049C85.4163 223.27 85.4163 226.377 85.4163 229.829C88.7625 229.829 91.7626 229.829 95.2242 229.829C95.2242 233.396 95.2242 236.503 95.2242 240.07C98.8013 240.07 101.917 240.07 105.494 240.07C105.494 243.522 105.494 246.514 105.494 249.506C112.302 249.506 118.648 249.506 125.34 249.506C125.34 246.284 125.34 243.407 125.34 239.84C132.264 239.84 138.61 239.84 145.418 239.84C145.418 236.273 145.418 233.281 145.418 229.714C152.226 229.714 158.572 229.714 165.38 229.714C165.38 226.262 165.38 223.27 165.38 219.933C172.072 219.933 178.534 219.933 185.342 219.933C185.342 216.366 185.342 213.375 185.342 210.498C188.804 210.498 191.804 210.498 194.804 210.498C194.804 217.057 194.804 223.155 194.804 229.829C191.573 229.829 188.573 229.829 184.996 229.829C184.996 233.396 184.996 236.503 184.996 240.07C181.419 240.07 178.303 240.07 174.957 240.07C174.957 246.744 174.957 252.958 174.957 259.746C171.611 259.746 168.495 259.746 165.38 259.746C165.38 276.546 165.38 292.886 165.38 309.57C168.726 309.57 171.726 309.57 175.073 309.57C175.073 312.907 175.073 316.014 175.073 319.581C184.65 319.581 193.996 319.696 203.227 319.466C203.919 319.466 204.958 317.74 205.073 316.704C205.304 314.403 205.189 312.102 205.189 309.34C208.881 309.34 211.881 309.34 215.227 309.34C215.227 305.888 215.227 302.896 215.227 299.56C221.92 299.56 228.382 299.56 235.189 299.56C235.189 295.992 235.189 292.886 235.189 289.549C238.651 289.549 241.651 289.549 245.228 289.549C245.228 286.327 245.228 283.22 245.228 280.228C248.805 280.228 261.613 280.228 265.075 280.228C265.075 286.787 265.075 308.995 265.075 315.554C268.306 315.554 261.498 315.554 264.959 315.554C264.959 319.006 264.959 321.997 264.959 325.449C268.536 325.449 271.652 325.449 274.998 325.449C274.998 328.901 274.998 331.893 274.998 335C278.691 335 281.691 335 285.268 335C285.268 331.548 285.268 328.556 285.268 325.219C288.729 325.219 291.729 325.219 295.306 325.219C295.306 318.43 295.306 312.102 295.306 305.198C298.768 305.198 301.768 305.198 305.23 305.198C305.23 298.524 305.23 276.201 305.23 269.527C308.691 269.527 311.691 269.527 315.153 269.527C315.153 266.19 315.153 263.083 315.153 259.746C318.499 259.746 321.615 259.746 325.192 259.746C325.192 252.842 325.192 246.514 325.192 239.725C328.769 239.725 331.884 239.725 335 239.725C335 233.051 335 226.722 335 219.933C331.654 219.933 328.538 219.933 324.961 219.933C324.961 216.366 324.961 213.26 324.961 210.038C314.807 210.038 305.114 210.038 295.076 210.038C295.076 213.26 295.076 216.366 295.076 219.818C291.614 219.818 288.499 219.818 284.922 219.818C284.922 223.385 284.922 226.262 284.922 229.599C278.114 229.599 271.767 229.599 264.959 229.599C264.959 233.166 264.959 236.273 264.959 239.725C258.036 239.725 251.805 239.725 244.997 239.725C244.997 243.177 244.997 246.169 244.997 249.506C241.536 249.506 238.536 249.506 235.189 249.506C235.189 252.958 235.189 255.949 235.189 259.171C228.382 259.171 221.92 259.171 215.458 259.171C215.458 255.949 215.458 252.842 215.458 249.39C218.804 249.39 221.92 249.39 225.497 249.39C225.497 245.938 225.497 242.947 225.497 239.61C228.959 239.61 231.959 239.61 235.305 239.61C235.305 236.043 235.305 232.936 235.305 229.484C238.766 229.484 241.767 229.484 245.113 229.484C245.113 226.147 245.113 223.04 245.113 219.703C248.574 219.703 251.575 219.703 255.152 219.703C255.152 212.914 255.152 206.586 255.152 199.797C258.729 199.797 261.729 199.797 265.19 199.797C265.19 196.46 265.19 193.468 265.19 190.246C268.767 190.131 271.883 189.901 274.767 189.671C274.767 179.545 274.767 169.995 274.767 159.984C271.537 159.984 268.421 159.984 264.959 159.984C264.959 156.532 264.959 153.425 264.959 149.973C254.805 149.973 245.113 149.973 235.305 149.973L225.958 150.318ZM154.88 200.027C154.764 200.027 154.764 200.027 154.88 200.027C154.764 200.142 154.764 200.027 154.88 200.027C151.533 200.027 148.418 200.027 145.072 200.027C145.072 196.69 145.072 193.468 145.072 190.016C148.533 190.016 151.533 190.016 154.88 190.016C154.88 190.131 154.88 190.361 154.88 190.476C154.88 193.813 154.88 196.92 154.88 200.027ZM234.728 150.318C234.728 150.433 234.728 150.663 234.728 150.894C234.728 153.885 234.728 156.877 234.728 160.444V160.559C228.266 160.559 221.92 160.559 215.458 160.559C215.458 164.011 215.458 167.233 215.458 170.8C208.42 170.8 201.612 170.8 194.804 170.8C194.804 170.915 194.804 170.915 194.804 170.915C194.804 173.907 194.804 176.899 194.804 180.236C191.804 180.236 188.804 180.236 185.227 180.236C185.227 183.688 185.227 186.679 185.227 190.016C178.534 190.016 172.765 190.016 166.765 190.016C162.726 190.016 158.803 190.016 154.764 190.016C154.764 186.794 154.764 183.918 154.764 180.466C159.034 180.466 162.726 180.466 166.765 180.466C166.765 180.466 166.765 180.466 166.765 180.581C169.303 180.581 171.957 180.581 174.957 180.581C174.957 177.244 174.957 174.252 174.957 170.915C174.957 170.8 174.957 170.57 174.957 170.455C174.957 167.118 174.957 163.896 174.957 160.444C185.573 160.444 195.265 160.444 205.304 160.444C205.304 157.222 205.304 153.885 205.304 150.433" fill="black"/>
</svg>
