<svg width="351" height="350" viewBox="0 0 351 350" fill="none" xmlns="http://www.w3.org/2000/svg">
<path d="M141.523 66.9474C87.0185 66.9474 42.9998 111.081 42.9998 165.471C42.9998 219.861 87.1337 263.995 141.523 263.995" stroke="black" stroke-width="8.5039" stroke-miterlimit="10"/>
<path d="M300.009 335L300.009 15L139.144 15L139.144 335L300.009 335Z" stroke="black" stroke-width="2.8346" stroke-miterlimit="10"/>
<path d="M196.259 247.401C222.647 229.771 240.047 199.58 240.047 165.471C240.047 131.247 222.647 101.171 196.259 83.5408C180.587 73.0547 161.804 66.9474 141.523 66.9474C87.0185 66.9474 42.9998 111.081 42.9998 165.471C42.9998 219.861 87.1337 263.995 141.523 263.995C161.689 263.995 180.587 257.887 196.259 247.401Z" stroke="black" stroke-width="0.8504" stroke-miterlimit="10"/>
</svg>
