<svg width="352" height="351" viewBox="0 0 352 351" fill="none" xmlns="http://www.w3.org/2000/svg">
<path d="M45.0919 83.5456C36.1211 87.1109 21.6298 97.9219 15.3043 108.158C-12.068 152.437 -7.12262 246.17 92.5909 278.602C144 295.279 147.221 265.031 196.79 322.536C240.494 373.255 343.197 330.817 350.558 238.924C355.849 171.988 314.79 -9.26732 165.047 7.75414C147.451 9.70931 138.135 16.1499 128.359 22.4754C101.677 39.4969 99.4915 62.0388 45.0919 83.5456Z" stroke="white" stroke-miterlimit="10"/>
<path d="M69.7043 91.3664C62.1137 94.3567 49.8076 103.557 44.4022 112.183C21.1702 149.791 25.4255 229.378 110.073 256.866C153.777 271.012 156.422 245.365 198.515 294.129C235.549 337.142 322.841 301.144 329.052 223.168C333.537 166.468 298.689 12.5846 171.603 26.9609C156.652 28.686 148.716 34.0915 140.435 39.3819C117.778 53.8732 115.823 73.0798 69.7043 91.3664Z" stroke="white" stroke-miterlimit="10"/>
<path d="M123.184 99.762C118.239 101.717 110.303 107.583 106.853 113.218C91.9014 137.37 94.6616 188.665 149.061 206.261C177.124 215.347 178.964 198.901 205.991 230.298C229.798 258.016 285.923 234.784 289.948 184.639C292.824 148.066 270.397 49.1577 188.625 58.4735C178.964 59.6236 173.903 63.0739 168.613 66.5242C154.122 75.725 152.972 88.031 123.184 99.762Z" stroke="white" stroke-miterlimit="10"/>
<path d="M175.168 99.302C172.523 100.337 168.383 103.442 166.542 106.318C158.607 119.084 160.102 145.996 188.739 155.312C203.576 160.142 199.665 157.267 218.757 167.963C238.194 178.889 260.851 170.378 262.921 143.926C264.416 124.719 252.685 72.6197 209.556 77.4501C204.496 78.0252 201.85 79.8653 198.975 81.7055C191.5 86.6509 190.809 93.2065 175.168 99.302Z" stroke="white" stroke-miterlimit="10"/>
<path d="M100.182 97.5769C93.9712 100.107 84.0803 107.928 79.7099 115.288C60.9633 147.261 64.2986 215.117 132.614 238.464C167.807 250.54 169.993 228.688 203.921 270.207C233.823 306.78 304.094 276.072 309.155 209.711C312.835 161.407 284.773 30.4111 182.299 42.7172C170.223 44.2123 163.897 48.8127 157.112 53.2981C138.94 65.7191 137.445 82.0505 100.182 97.5769Z" stroke="white" stroke-miterlimit="10"/>
<path d="M318.125 311.61C318.125 311.61 312.605 190.735 258.09 158.302" stroke="white" stroke-miterlimit="10"/>
<path d="M40.3769 85.6159C40.3769 85.6159 119.159 69.5145 188.51 91.7114" stroke="white" stroke-miterlimit="10"/>
<path d="M76.8348 271.932C76.8348 271.932 109.728 157.267 170.453 145.191" stroke="white" stroke-miterlimit="10"/>
<path d="M240.379 86.076C240.379 86.076 259.816 46.3976 300.069 64.6841" stroke="white" stroke-miterlimit="10"/>
<path d="M149.291 9.93951C149.291 9.93951 201.16 33.1715 213.351 76.5302" stroke="white" stroke-miterlimit="10"/>
<path d="M1.61835 184.524C1.61835 184.524 64.4137 77.9102 166.657 106.433" stroke="white" stroke-miterlimit="10"/>
</svg>
